<?xml version="1.0" encoding="utf-8"?>
<!-- Generator: Adobe Illustrator 21.1.0, SVG Export Plug-In . SVG Version: 6.00 Build 0)  -->
<svg version="1.1" id="Logo_1_" xmlns="http://www.w3.org/2000/svg" xmlns:xlink="http://www.w3.org/1999/xlink" x="0px" y="0px"
	 width="176.3px" height="53px" viewBox="0 0 176.3 53" style="enable-background:new 0 0 176.3 53;" xml:space="preserve">
<style type="text/css">
	.st0{fill:#D11E1E;}
	.st1{fill:#999999;}
</style>
<g>
	<path class="st0" d="M7.2,12.3c0.8-0.6,1.6-1.1,2.4-1.5c0.8-0.4,1.7-0.6,2.5-0.6c1.4,0,2.5,0.4,3.4,1.1c0.6,0.5,1,1.1,1.4,1.7
		c0.3,0.7,0.6,1.4,0.8,2.2c0.2,0.8,0.4,1.5,0.4,2.3c0.1,0.8,0.1,1.5,0.1,2.3c0,1.7-0.3,3.3-0.8,4.9c-0.5,1.6-1.4,2.9-2.5,3.9
		c-0.7,0.6-1.5,1.1-2.4,1.5c-0.9,0.4-1.9,0.6-3,0.6c-1.2,0-2.3-0.2-3.2-0.5c-0.9-0.3-1.7-0.8-2.3-1.4c-0.6-0.6-1.1-1.3-1.4-2.2
		C2.2,25.8,2,24.8,2,23.8V4.6H0.6c-0.2,0-0.3-0.1-0.4-0.2C0.1,4.2,0.1,4.1,0.1,3.9c0-0.2,0.1-0.3,0.2-0.5c0.1-0.1,0.3-0.2,0.4-0.2
		h1.2c0.7,0,1.3-0.1,1.9-0.4c0.6-0.3,1.1-0.6,1.6-1.1c0.5-0.5,0.8-0.9,1.1-1.5c0.1-0.1,0.2-0.2,0.3-0.2C6.9,0,7,0,7.1,0
		c0.1,0,0.2,0.1,0.3,0.2c0.1,0.1,0.1,0.2,0.1,0.4C7.5,1,7.5,1.5,7.4,2c0,0.5-0.1,1-0.1,1.5c0,0.4,0,0.8-0.1,1.2c0,0.4,0,0.8,0,1.2
		V12.3z M9.7,13.3c-0.7,0-1.3,0.3-1.8,1c-0.5,0.7-0.7,1.5-0.7,2.4v8.2c0,1.1,0.2,2,0.5,2.7c0.4,0.7,0.9,1.1,1.7,1.1
		c0.6,0,1.1-0.3,1.5-0.8c0.4-0.5,0.7-1.1,0.9-1.9c0.2-0.8,0.4-1.6,0.4-2.6s0.1-1.8,0.1-2.7c0-0.9,0-1.7-0.1-2.6
		c-0.1-0.9-0.2-1.7-0.4-2.4c-0.2-0.7-0.5-1.3-0.8-1.8C10.7,13.6,10.2,13.3,9.7,13.3z"/>
	<path class="st0" d="M32.3,19.8c-0.5,0.5-1.2,1-2,1.3c-0.8,0.3-1.5,0.5-2.3,0.5c-0.6,0-1.2,0-1.6,0c-0.4,0-0.8,0-1.3-0.1
		c0,0.4,0,0.8,0,1.3c0,0.4,0,0.8,0.1,1.3c0.1,0.5,0.2,1,0.3,1.6c0.1,0.5,0.3,1.1,0.6,1.5c0.3,0.5,0.6,0.8,0.9,1.1
		c0.4,0.3,0.8,0.4,1.4,0.4c0.7,0,1.4-0.2,2-0.5c0.6-0.3,1.2-0.8,1.7-1.4c0.3-0.3,0.5-0.6,0.7-0.8c0.2-0.2,0.4-0.2,0.7-0.1
		c0.5,0.2,0.5,0.6,0,1.4c-0.4,0.6-0.8,1.1-1.2,1.5c-1.4,1.4-3.1,2.1-5.2,2.1c-0.9,0-1.7-0.2-2.6-0.5c-0.8-0.4-1.5-0.8-2.2-1.3
		c-1.1-1-1.9-2.2-2.4-3.7c-0.5-1.5-0.7-3-0.7-4.7c0-1.3,0.2-2.6,0.5-3.8c0.3-1.2,0.8-2.3,1.5-3.3c0.7-1,1.6-1.7,2.7-2.3
		c1.1-0.6,2.4-0.9,4-0.9c0.9,0,1.8,0.1,2.7,0.4c0.9,0.3,1.6,0.7,2.1,1.4c0.4,0.5,0.7,1,0.9,1.5c0.2,0.5,0.3,1.1,0.3,1.7
		c0,0.9-0.2,1.7-0.5,2.5C33.4,18.5,32.9,19.2,32.3,19.8z M29,17.5c0.2-0.7,0.3-1.4,0.3-2.2c0-0.9-0.1-1.6-0.4-2.3
		c-0.3-0.7-0.7-1-1.3-1c-0.3,0-0.6,0.1-0.9,0.4c-0.2,0.2-0.4,0.5-0.6,0.9c-0.2,0.3-0.3,0.7-0.4,1.1c-0.1,0.4-0.2,0.7-0.2,1
		c-0.1,0.7-0.2,1.4-0.2,2.1c-0.1,0.6,0,1.1,0.2,1.5c0.2,0.4,0.5,0.6,1,0.6C27.8,19.6,28.6,18.9,29,17.5z"/>
	<path class="st0" d="M49.8,22.8c0,0.6,0,1.2,0,1.6s0,0.8,0,1.1c0,0.3,0,0.5,0,0.8c0,0.2,0,0.4,0.1,0.6c0.1,0.6,0.3,0.8,0.7,0.8
		c0.2,0,0.4-0.1,0.6-0.2c0.2-0.2,0.4-0.3,0.6-0.6c0.2-0.2,0.4-0.4,0.5-0.7c0.1-0.2,0.3-0.4,0.4-0.6c0.3-0.5,0.6-0.7,1-0.5
		c0.3,0.1,0.4,0.5,0.2,1.1c-0.2,0.5-0.5,1-0.8,1.5c-0.3,0.5-0.7,1-1.1,1.4c-0.5,0.5-1,0.9-1.5,1.2c-0.6,0.3-1.2,0.4-1.8,0.4
		c-0.9,0-1.6-0.2-2.1-0.5c-0.5-0.3-1-0.8-1.3-1.3c-0.1-0.2-0.2-0.5-0.3-0.8c-0.8,0.7-1.6,1.3-2.4,1.9c-0.8,0.5-1.7,0.8-2.6,0.8
		c-0.8,0-1.5-0.2-2.1-0.6c-0.6-0.4-1.1-0.9-1.5-1.6c-0.4-0.6-0.7-1.3-0.9-2.1s-0.3-1.5-0.3-2.2c0-1.4,0.3-2.6,0.8-3.8
		c0.6-1.2,1.4-2.1,2.5-2.8c-0.7-1-1.1-2.1-1.1-3.2c0-0.7,0.2-1.3,0.5-1.8c0.3-0.5,0.7-1,1.2-1.3c0.5-0.3,1.1-0.6,1.7-0.8
		s1.2-0.3,1.8-0.3c1.2,0,2.3,0.2,3.2,0.5c0.9,0.3,1.7,0.8,2.3,1.4c1.3,1.2,1.9,2.8,1.9,4.9V22.8z M44.6,16.9c0-0.5,0-1.1-0.1-1.6
		c-0.1-0.5-0.2-1-0.4-1.5s-0.5-0.8-0.8-1.1c-0.3-0.3-0.8-0.4-1.3-0.4c-0.6,0-1.1,0.2-1.5,0.6c-0.4,0.4-0.6,0.9-0.6,1.5
		c0,0.5,0,1,0.1,1.4c0.1,0.4,0.3,0.8,0.6,1.3c0.2,0,0.4,0,0.6-0.1c0.2,0,0.4,0,0.5,0c0.6,0,1.1,0.1,1.6,0.2s0.9,0.3,1.4,0.6V16.9z
		 M44.6,24v-4.3c-0.3-0.1-0.6-0.2-0.8-0.3c-0.3-0.1-0.5-0.1-0.8-0.1c-0.4,0-0.7,0.1-1,0.4c-0.3,0.3-0.5,0.6-0.7,1
		C41.2,21,41.1,21.4,41,22s-0.1,1-0.1,1.5c0,0.5,0,0.9,0,1.4c0,0.5,0.1,0.9,0.2,1.3c0.1,0.4,0.3,0.7,0.5,1c0.2,0.3,0.5,0.4,0.9,0.4
		c0.4,0,0.8-0.1,1.1-0.4c0.3-0.3,0.5-0.6,0.7-0.9c0.2-0.4,0.3-0.8,0.4-1.2C44.6,24.7,44.6,24.3,44.6,24z"/>
	<path class="st0" d="M60.5,27.3c0.7,0,1.4-0.3,1.9-0.9c0.5-0.6,0.8-1.4,0.8-2.4v-13c0-0.5,0.2-0.8,0.7-0.8h3.7
		c0.3,0,0.6,0.1,0.7,0.2c0.1,0.1,0.1,0.4,0.1,0.7v11.6c0,0.7,0,1.4,0,2c0,0.7,0,1.3,0.1,2c0.1,0.6,0.3,0.8,0.7,0.8
		c0.2,0,0.4-0.1,0.6-0.2c0.2-0.2,0.4-0.3,0.6-0.6c0.2-0.2,0.4-0.4,0.5-0.7c0.1-0.2,0.3-0.4,0.4-0.6c0.3-0.5,0.6-0.7,1-0.5
		c0.3,0.1,0.4,0.5,0.2,1.1c-0.2,0.5-0.5,1-0.8,1.5c-0.3,0.5-0.7,1-1.1,1.4c-0.5,0.5-1,0.9-1.5,1.2s-1.2,0.4-1.8,0.4
		c-1,0-1.7-0.2-2.2-0.6c-0.5-0.4-0.9-0.9-1.2-1.5c-0.1-0.2-0.2-0.4-0.2-0.5c-0.9,0.6-1.7,1.1-2.5,1.5c-0.8,0.4-1.6,0.7-2.3,0.9
		c-0.3,0.1-0.5,0.1-0.8,0.1c-0.3,0-0.5,0-0.7,0c-0.8,0-1.5-0.1-2-0.4c-0.5-0.3-0.9-0.7-1.2-1.1c-0.3-0.5-0.5-1-0.6-1.6
		c-0.1-0.6-0.2-1.2-0.2-1.7V14.3h-1.4c-0.2,0-0.3-0.1-0.4-0.2c-0.1-0.1-0.1-0.3-0.1-0.5c0-0.2,0.1-0.3,0.2-0.5
		c0.1-0.1,0.3-0.2,0.4-0.2H53c1.3,0,2.5-0.4,3.5-1.2c0.3-0.2,0.5-0.4,0.6-0.6c0.2-0.2,0.3-0.5,0.4-0.8c0.1-0.1,0.2-0.2,0.3-0.2
		c0.1-0.1,0.3-0.1,0.4,0c0.1,0,0.2,0.1,0.3,0.2c0.1,0.1,0.1,0.2,0.1,0.4c-0.1,0.5-0.1,1-0.1,1.5c0,0.5-0.1,1-0.1,1.5
		c0,0.4,0,0.8-0.1,1.2c0,0.4,0,0.8,0,1.2v6.9c0,0.5,0,1,0,1.6c0,0.5,0.1,1,0.2,1.5s0.3,0.8,0.6,1.1C59.5,27.2,59.9,27.3,60.5,27.3z"
		/>
	<path class="st0" d="M71.6,14.3h-1.4c-0.2,0-0.3-0.1-0.4-0.2c-0.1-0.1-0.1-0.3-0.1-0.5c0-0.2,0.1-0.3,0.2-0.5
		c0.1-0.1,0.3-0.2,0.4-0.2h1.3l0-1.4c0-0.6,0.3-1,0.8-1.2c0.4-0.1,0.7-0.3,1-0.5c0.3-0.2,0.6-0.5,0.9-0.8c0.4-0.4,0.8-0.8,1.1-1.2
		C75.8,7.4,76,7,76.2,6.5c0.1-0.3,0.3-0.4,0.6-0.3c0.1,0,0.2,0.1,0.3,0.2c0.1,0.1,0.1,0.2,0.1,0.4c-0.1,0.6-0.1,1.2-0.1,1.6
		c0,0.5,0,0.9-0.1,1.4c0,0.4,0,0.9,0,1.4c0,0.5,0,1.1-0.1,1.8h2.9c0.2,0,0.3,0.1,0.4,0.2c0.1,0.1,0.1,0.3,0.1,0.5
		c0,0.2,0,0.3-0.1,0.5c-0.1,0.1-0.2,0.2-0.4,0.2h-3v9.5c0,1,0,2,0.1,3c0.1,0.6,0.3,0.8,0.7,0.8c0.2,0,0.4-0.1,0.6-0.2
		c0.2-0.2,0.4-0.3,0.6-0.6c0.2-0.2,0.4-0.4,0.5-0.7c0.1-0.2,0.3-0.4,0.4-0.6c0.3-0.5,0.6-0.7,1-0.5c0.3,0.1,0.4,0.5,0.2,1.1
		c-0.2,0.5-0.5,1-0.8,1.5c-0.3,0.5-0.7,1-1.1,1.4c-0.5,0.5-1,0.9-1.5,1.2s-1.2,0.4-1.8,0.4c-0.8,0-1.4-0.1-1.9-0.4
		c-0.5-0.3-0.9-0.6-1.2-1.1c-0.3-0.4-0.5-0.9-0.6-1.5c-0.1-0.6-0.2-1.1-0.2-1.7L71.6,14.3z"/>
	<path class="st0" d="M88.2,25.6c0.3-0.5,0.6-0.7,1-0.5c0.3,0.1,0.4,0.5,0.2,1.1c-0.2,0.5-0.5,1-0.8,1.5c-0.3,0.5-0.7,1-1.1,1.4
		c-0.5,0.5-1,0.9-1.5,1.2c-0.6,0.3-1.2,0.4-1.8,0.4c-0.8,0-1.5-0.1-2-0.4c-0.5-0.3-0.9-0.7-1.2-1.1c-0.3-0.5-0.5-1-0.6-1.6
		c-0.1-0.6-0.2-1.2-0.2-1.7V14.3h-1.4c-0.2,0-0.3-0.1-0.4-0.2c-0.1-0.1-0.1-0.3-0.1-0.5c0-0.2,0.1-0.3,0.2-0.5
		c0.1-0.1,0.3-0.2,0.4-0.2H80c1.3,0,2.5-0.4,3.5-1.2c0.3-0.2,0.5-0.4,0.6-0.6c0.2-0.2,0.3-0.5,0.4-0.8c0.1-0.1,0.2-0.2,0.3-0.2
		c0.1-0.1,0.3-0.1,0.4,0c0.1,0,0.2,0.1,0.3,0.2c0.1,0.1,0.1,0.2,0.1,0.4c-0.1,0.5-0.1,1-0.1,1.5c0,0.5-0.1,1-0.1,1.5
		c0,0.4,0,0.8-0.1,1.2c0,0.4,0,0.8,0,1.2v6.9c0,0.7,0,1.4,0,2c0,0.7,0,1.3,0.1,2c0.1,0.6,0.3,0.8,0.7,0.8c0.2,0,0.4-0.1,0.6-0.2
		c0.2-0.2,0.4-0.3,0.6-0.6c0.2-0.2,0.4-0.4,0.5-0.7C88,26,88.1,25.8,88.2,25.6z M80.4,5c0-0.7,0.3-1.4,0.8-1.9
		c0.5-0.5,1.1-0.8,1.8-0.8c0.7,0,1.3,0.3,1.8,0.8c0.5,0.5,0.8,1.2,0.8,1.9s-0.3,1.4-0.8,1.9c-0.5,0.5-1.1,0.8-1.8,0.8
		c-0.7,0-1.3-0.3-1.8-0.8C80.7,6.3,80.4,5.7,80.4,5z"/>
	<path class="st0" d="M88.6,12.9V8.3c0-1,0.1-2,0.2-3c0.1-1,0.4-1.8,0.8-2.6c0.4-0.7,0.9-1.3,1.6-1.8c0.7-0.5,1.6-0.7,2.7-0.7
		c0.6,0,1.1,0.1,1.6,0.3c0.5,0.2,0.8,0.5,1.1,0.9c0.3,0.4,0.5,0.8,0.6,1.3c0.1,0.5,0.2,1,0.2,1.5c0,0.7-0.1,1.3-0.4,2
		c-0.2,0.6-0.6,1.2-1,1.7c-0.6,0.6-1.3,1.1-2.2,1.3v3.7h3c0.2,0,0.3,0.1,0.4,0.2c0.1,0.1,0.1,0.3,0.1,0.5c0,0.2,0,0.3-0.1,0.5
		c-0.1,0.1-0.2,0.2-0.4,0.2h-3v16c0,0.4-0.1,0.7-0.2,1c-0.1,0.3-0.3,0.5-0.7,0.7l-2.4,1.5c-0.7,0.4-1.2,0.6-1.5,0.5
		c-0.3-0.1-0.5-0.4-0.5-1V14.3h-1.4c-0.2,0-0.3-0.1-0.4-0.2c-0.1-0.1-0.1-0.3-0.1-0.5c0-0.2,0.1-0.3,0.2-0.5
		c0.1-0.1,0.3-0.2,0.4-0.2H88.6z M93.8,7.7c0.5,0,0.9-0.1,1.2-0.4c0.5-0.5,0.8-0.9,0.9-1.4c0.1-0.5,0.2-1,0.2-1.6
		c0-0.2,0-0.5-0.1-0.7C96,3.3,96,3,95.8,2.8c-0.1-0.3-0.2-0.5-0.4-0.6c-0.2-0.2-0.4-0.3-0.6-0.3c-0.4,0-0.7,0.2-0.8,0.5
		c-0.1,0.3-0.2,0.7-0.2,1.1V7.7z"/>
	<path class="st0" d="M105.8,27.3c0.7,0,1.4-0.3,1.9-0.9c0.5-0.6,0.8-1.4,0.8-2.4v-13c0-0.5,0.2-0.8,0.7-0.8h3.7
		c0.3,0,0.6,0.1,0.7,0.2c0.1,0.1,0.1,0.4,0.1,0.7v11.6c0,0.7,0,1.4,0,2c0,0.7,0,1.3,0.1,2c0.1,0.6,0.3,0.8,0.7,0.8
		c0.2,0,0.4-0.1,0.6-0.2c0.2-0.2,0.4-0.3,0.6-0.6c0.2-0.2,0.4-0.4,0.5-0.7c0.1-0.2,0.3-0.4,0.4-0.6c0.3-0.5,0.6-0.7,1-0.5
		c0.3,0.1,0.4,0.5,0.2,1.1c-0.2,0.5-0.5,1-0.8,1.5c-0.3,0.5-0.7,1-1.1,1.4c-0.5,0.5-1,0.9-1.5,1.2c-0.6,0.3-1.2,0.4-1.8,0.4
		c-1,0-1.7-0.2-2.2-0.6c-0.5-0.4-0.9-0.9-1.2-1.5c-0.1-0.2-0.2-0.4-0.2-0.5c-0.9,0.6-1.7,1.1-2.5,1.5c-0.8,0.4-1.6,0.7-2.3,0.9
		c-0.3,0.1-0.5,0.1-0.8,0.1c-0.3,0-0.5,0-0.7,0c-0.8,0-1.5-0.1-2-0.4s-0.9-0.7-1.2-1.1c-0.3-0.5-0.5-1-0.6-1.6
		c-0.1-0.6-0.2-1.2-0.2-1.7V14.3H97c-0.2,0-0.3-0.1-0.4-0.2c-0.1-0.1-0.1-0.3-0.1-0.5c0-0.2,0.1-0.3,0.2-0.5
		c0.1-0.1,0.3-0.2,0.4-0.2h1.2c1.3,0,2.5-0.4,3.5-1.2c0.3-0.2,0.5-0.4,0.6-0.6c0.2-0.2,0.3-0.5,0.4-0.8c0.1-0.1,0.2-0.2,0.3-0.2
		c0.1-0.1,0.3-0.1,0.4,0c0.1,0,0.2,0.1,0.3,0.2s0.1,0.2,0.1,0.4c-0.1,0.5-0.1,1-0.1,1.5c0,0.5-0.1,1-0.1,1.5c0,0.4,0,0.8-0.1,1.2
		c0,0.4,0,0.8,0,1.2v6.9c0,0.5,0,1,0,1.6c0,0.5,0.1,1,0.2,1.5c0.1,0.4,0.3,0.8,0.6,1.1C104.8,27.2,105.2,27.3,105.8,27.3z"/>
	<path class="st0" d="M122.2,23.7c0,1,0,2.1,0.1,3.2c0.1,0.6,0.3,0.8,0.7,0.8c0.2,0,0.4-0.1,0.6-0.2c0.2-0.2,0.4-0.3,0.6-0.6
		c0.2-0.2,0.4-0.4,0.5-0.7c0.1-0.2,0.3-0.4,0.4-0.6c0.3-0.5,0.6-0.7,1-0.5c0.3,0.1,0.4,0.5,0.2,1.1c-0.2,0.5-0.5,1-0.8,1.5
		c-0.3,0.5-0.7,1-1.1,1.4c-0.5,0.5-1,0.9-1.5,1.2c-0.6,0.3-1.2,0.4-1.8,0.4c-0.8,0-1.5-0.1-2-0.4s-0.9-0.7-1.2-1.1
		c-0.3-0.5-0.5-1-0.6-1.6c-0.1-0.6-0.2-1.2-0.2-1.7V4.6h-1.4c-0.2,0-0.3-0.1-0.4-0.2c-0.1-0.1-0.1-0.3-0.1-0.5
		c0-0.2,0.1-0.3,0.2-0.5c0.1-0.1,0.3-0.2,0.4-0.2h1.2c0.7,0,1.3-0.1,1.9-0.4c0.6-0.3,1.1-0.6,1.6-1.1c0.5-0.5,0.8-0.9,1.1-1.5
		c0.1-0.1,0.2-0.2,0.3-0.2c0.1-0.1,0.3-0.1,0.4,0c0.1,0,0.2,0.1,0.3,0.2s0.1,0.2,0.1,0.4c-0.1,0.5-0.1,1-0.1,1.5
		c0,0.5-0.1,1-0.1,1.5c0,0.4,0,0.8-0.1,1.2c0,0.4,0,0.8,0,1.2V23.7z"/>
	<path class="st0" d="M140.6,23.7c0,1,0,2.1,0.1,3.2c0.1,0.6,0.3,0.8,0.7,0.8c0.2,0,0.4-0.1,0.6-0.2c0.2-0.2,0.4-0.3,0.6-0.6
		c0.2-0.2,0.4-0.4,0.5-0.7c0.1-0.2,0.3-0.4,0.4-0.6c0.3-0.5,0.6-0.7,1-0.5c0.3,0.1,0.4,0.5,0.2,1.1c-0.2,0.5-0.5,1-0.8,1.5
		c-0.3,0.5-0.7,1-1.1,1.4c-0.5,0.5-1,0.9-1.5,1.2c-0.6,0.3-1.2,0.4-1.8,0.4c-0.8,0-1.5-0.1-2-0.4s-0.9-0.7-1.2-1.1
		c-0.3-0.5-0.5-1-0.6-1.6c-0.1-0.6-0.2-1.2-0.2-1.7V4.6H134c-0.2,0-0.3-0.1-0.4-0.2c-0.1-0.1-0.1-0.3-0.1-0.5c0-0.2,0.1-0.3,0.2-0.5
		c0.1-0.1,0.3-0.2,0.4-0.2h1.2c0.7,0,1.3-0.1,1.9-0.4c0.6-0.3,1.1-0.6,1.6-1.1c0.5-0.5,0.8-0.9,1.1-1.5c0.1-0.1,0.2-0.2,0.3-0.2
		c0.1-0.1,0.3-0.1,0.4,0c0.1,0,0.2,0.1,0.3,0.2c0.1,0.1,0.1,0.2,0.1,0.4c-0.1,0.5-0.1,1-0.1,1.5c0,0.5-0.1,1-0.1,1.5
		c0,0.4,0,0.8-0.1,1.2c0,0.4,0,0.8,0,1.2V23.7z"/>
	<path class="st0" d="M152,25.6c0.3-0.5,0.6-0.7,1-0.5c0.3,0.1,0.4,0.5,0.2,1.1c-0.2,0.5-0.5,1-0.8,1.5c-0.3,0.5-0.7,1-1.1,1.4
		c-0.5,0.5-1,0.9-1.5,1.2c-0.6,0.3-1.2,0.4-1.8,0.4c-0.8,0-1.5-0.1-2-0.4c-0.5-0.3-0.9-0.7-1.2-1.1c-0.3-0.5-0.5-1-0.6-1.6
		c-0.1-0.6-0.2-1.2-0.2-1.7V14.3h-1.4c-0.2,0-0.3-0.1-0.4-0.2c-0.1-0.1-0.1-0.3-0.1-0.5c0-0.2,0.1-0.3,0.2-0.5
		c0.1-0.1,0.3-0.2,0.4-0.2h1.2c1.3,0,2.5-0.4,3.5-1.2c0.3-0.2,0.5-0.4,0.6-0.6c0.2-0.2,0.3-0.5,0.4-0.8c0.1-0.1,0.2-0.2,0.3-0.2
		c0.1-0.1,0.3-0.1,0.4,0c0.1,0,0.2,0.1,0.3,0.2c0.1,0.1,0.1,0.2,0.1,0.4c-0.1,0.5-0.1,1-0.1,1.5c0,0.5-0.1,1-0.1,1.5
		c0,0.4,0,0.8-0.1,1.2c0,0.4,0,0.8,0,1.2v6.9c0,0.7,0,1.4,0,2c0,0.7,0,1.3,0.1,2c0.1,0.6,0.3,0.8,0.7,0.8c0.2,0,0.4-0.1,0.6-0.2
		c0.2-0.2,0.4-0.3,0.6-0.6c0.2-0.2,0.4-0.4,0.5-0.7C151.7,26,151.9,25.8,152,25.6z M144.2,5c0-0.7,0.3-1.4,0.8-1.9
		c0.5-0.5,1.1-0.8,1.8-0.8c0.7,0,1.3,0.3,1.8,0.8c0.5,0.5,0.8,1.2,0.8,1.9s-0.3,1.4-0.8,1.9c-0.5,0.5-1.1,0.8-1.8,0.8
		c-0.7,0-1.3-0.3-1.8-0.8C144.4,6.3,144.2,5.7,144.2,5z"/>
	<path class="st0" d="M152.4,12.9V8.3c0-1,0.1-2,0.2-3c0.1-1,0.4-1.8,0.8-2.6c0.4-0.7,0.9-1.3,1.6-1.8c0.7-0.5,1.6-0.7,2.7-0.7
		c0.6,0,1.1,0.1,1.6,0.3c0.5,0.2,0.8,0.5,1.1,0.9c0.3,0.4,0.5,0.8,0.6,1.3c0.1,0.5,0.2,1,0.2,1.5c0,0.7-0.1,1.3-0.4,2
		c-0.2,0.6-0.6,1.2-1,1.7c-0.6,0.6-1.3,1.1-2.2,1.3v3.7h3c0.2,0,0.3,0.1,0.4,0.2c0.1,0.1,0.1,0.3,0.1,0.5c0,0.2,0,0.3-0.1,0.5
		c-0.1,0.1-0.2,0.2-0.4,0.2h-3v16c0,0.4-0.1,0.7-0.2,1c-0.1,0.3-0.3,0.5-0.7,0.7l-2.4,1.5c-0.7,0.4-1.2,0.6-1.5,0.5
		c-0.3-0.1-0.5-0.4-0.5-1V14.3H151c-0.2,0-0.3-0.1-0.4-0.2c-0.1-0.1-0.1-0.3-0.1-0.5c0-0.2,0.1-0.3,0.2-0.5c0.1-0.1,0.3-0.2,0.4-0.2
		H152.4z M157.6,7.7c0.5,0,0.9-0.1,1.2-0.4c0.5-0.5,0.8-0.9,0.9-1.4c0.1-0.5,0.2-1,0.2-1.6c0-0.2,0-0.5-0.1-0.7
		c-0.1-0.3-0.1-0.5-0.2-0.8c-0.1-0.3-0.2-0.5-0.4-0.6c-0.2-0.2-0.4-0.3-0.6-0.3c-0.4,0-0.7,0.2-0.8,0.5c-0.1,0.3-0.2,0.7-0.2,1.1
		V7.7z"/>
	<path class="st0" d="M174.1,19.8c-0.5,0.5-1.2,1-2,1.3c-0.8,0.3-1.5,0.5-2.3,0.5c-0.6,0-1.2,0-1.6,0c-0.4,0-0.8,0-1.3-0.1
		c0,0.4,0,0.8,0,1.3c0,0.4,0,0.8,0.1,1.3c0.1,0.5,0.2,1,0.3,1.6c0.1,0.5,0.3,1.1,0.6,1.5c0.3,0.5,0.6,0.8,0.9,1.1
		c0.4,0.3,0.8,0.4,1.4,0.4c0.7,0,1.4-0.2,2-0.5c0.6-0.3,1.2-0.8,1.7-1.4c0.3-0.3,0.5-0.6,0.7-0.8c0.2-0.2,0.4-0.2,0.7-0.1
		c0.5,0.2,0.5,0.6,0,1.4c-0.4,0.6-0.8,1.1-1.2,1.5c-1.4,1.4-3.1,2.1-5.2,2.1c-0.9,0-1.7-0.2-2.6-0.5c-0.8-0.4-1.5-0.8-2.2-1.3
		c-1.1-1-1.9-2.2-2.4-3.7s-0.7-3-0.7-4.7c0-1.3,0.2-2.6,0.5-3.8c0.3-1.2,0.8-2.3,1.5-3.3s1.6-1.7,2.7-2.3c1.1-0.6,2.4-0.9,4-0.9
		c0.9,0,1.8,0.1,2.7,0.4c0.9,0.3,1.6,0.7,2.1,1.4c0.4,0.5,0.7,1,0.9,1.5c0.2,0.5,0.3,1.1,0.3,1.7c0,0.9-0.2,1.7-0.5,2.5
		C175.2,18.5,174.7,19.2,174.1,19.8z M170.8,17.5c0.2-0.7,0.3-1.4,0.3-2.2c0-0.9-0.1-1.6-0.4-2.3c-0.3-0.7-0.7-1-1.3-1
		c-0.3,0-0.6,0.1-0.9,0.4c-0.2,0.2-0.4,0.5-0.6,0.9c-0.2,0.3-0.3,0.7-0.4,1.1c-0.1,0.4-0.2,0.7-0.2,1c-0.1,0.7-0.2,1.4-0.2,2.1
		c-0.1,0.6,0,1.1,0.2,1.5c0.2,0.4,0.5,0.6,1,0.6C169.6,19.6,170.5,18.9,170.8,17.5z"/>
</g>
<g>
	<path class="st1" d="M46.6,46.1c0.4,0.2,0.7,0.5,1,0.8c0.3,0.3,0.5,0.7,0.6,1.2s0.2,0.9,0.2,1.3s-0.1,0.9-0.2,1.3
		c-0.1,0.4-0.4,0.8-0.6,1.2c-0.3,0.3-0.6,0.6-1,0.8c-0.4,0.2-0.8,0.3-1.3,0.3c-0.5,0-0.9-0.1-1.3-0.3c-0.4-0.2-0.7-0.5-1-0.8
		s-0.5-0.7-0.6-1.2s-0.2-0.9-0.2-1.3c0-0.5,0.1-0.9,0.2-1.3s0.4-0.8,0.6-1.2c0.3-0.3,0.6-0.6,1-0.8c0.4-0.2,0.8-0.3,1.3-0.3
		C45.8,45.8,46.2,45.9,46.6,46.1z M44.3,46.9c-0.3,0.2-0.5,0.4-0.8,0.6c-0.2,0.3-0.4,0.6-0.5,0.9c-0.1,0.3-0.2,0.7-0.2,1
		c0,0.3,0.1,0.7,0.2,1c0.1,0.3,0.3,0.6,0.5,0.9c0.2,0.3,0.5,0.5,0.8,0.6c0.3,0.2,0.6,0.2,1,0.2c0.4,0,0.7-0.1,1-0.2
		c0.3-0.2,0.5-0.4,0.8-0.6c0.2-0.3,0.4-0.6,0.5-0.9c0.1-0.3,0.2-0.7,0.2-1c0-0.4-0.1-0.7-0.2-1c-0.1-0.3-0.3-0.6-0.5-0.9
		c-0.2-0.3-0.5-0.5-0.8-0.6c-0.3-0.2-0.6-0.2-1-0.2C44.9,46.6,44.6,46.7,44.3,46.9z"/>
	<path class="st1" d="M51.2,47.1v5.9h-0.7V46h1l3.4,5.9V46h0.7v6.9h-1L51.2,47.1z"/>
	<path class="st1" d="M58.9,46v6.1h2.9v0.8h-3.6V46H58.9z"/>
	<path class="st1" d="M64.5,49.5c0,0.6,0,1.2,0,1.7c0,0.6,0,1.2,0,1.7h-0.8V46h0.8V49.5z"/>
	<path class="st1" d="M67.8,47.1v5.9H67V46h1l3.4,5.9V46h0.7v6.9h-1L67.8,47.1z"/>
	<path class="st1" d="M78.7,46.8h-3.3V49h2.8v0.8h-2.8v2.3h3.3v0.8h-4.1V46h4.1V46.8z"/>
	<path class="st1" d="M84.8,47v5.9H84V46h1.2l1.9,4.8l2-4.8h1.2v6.9h-0.8V47c-0.4,0.9-0.8,1.8-1.1,2.7c-0.4,0.9-0.7,1.7-1.1,2.6H87
		L84.8,47z"/>
	<path class="st1" d="M95.3,46l2.5,6.9h-0.8l-0.6-1.7h-3l-0.6,1.7H92l2.5-6.9H95.3z M96.2,50.4L94.9,47l-1.2,3.4H96.2z"/>
	<path class="st1" d="M101.2,46.9c-0.3,0.2-0.5,0.4-0.7,0.6c-0.2,0.3-0.3,0.6-0.4,0.9c-0.1,0.3-0.1,0.7-0.1,1.1
		c0,0.4,0.1,0.7,0.2,1.1c0.1,0.3,0.3,0.6,0.5,0.9s0.5,0.5,0.8,0.6s0.7,0.2,1,0.2c0.3,0,0.5-0.1,0.8-0.2s0.5-0.2,0.7-0.4v-1.9h-1.3
		V49h2.1v3.1c-0.3,0.3-0.6,0.6-1,0.8s-0.8,0.3-1.2,0.3c-0.5,0-1-0.1-1.3-0.3c-0.4-0.2-0.7-0.5-1-0.8c-0.3-0.3-0.5-0.7-0.6-1.2
		c-0.1-0.4-0.2-0.9-0.2-1.4c0-0.5,0.1-0.9,0.2-1.4s0.3-0.8,0.6-1.2c0.3-0.3,0.6-0.6,1-0.8s0.8-0.3,1.3-0.3c0.4,0,0.8,0.1,1.2,0.3
		c0.4,0.2,0.7,0.4,1,0.7c-0.1,0.1-0.1,0.2-0.2,0.3s-0.2,0.2-0.2,0.3c-0.3-0.2-0.5-0.4-0.8-0.5s-0.6-0.2-0.9-0.2
		C101.8,46.7,101.5,46.7,101.2,46.9z"/>
	<path class="st1" d="M109,46l2.5,6.9h-0.8l-0.6-1.7h-3l-0.6,1.7h-0.8l2.5-6.9H109z M109.8,50.4l-1.2-3.4l-1.2,3.4H109.8z"/>
	<path class="st1" d="M112.8,46.8V46h4.3v0.8l-3.6,5.3h3.7v0.8h-4.5v-0.8l3.5-5.3H112.8z"/>
	<path class="st1" d="M119.8,49.5c0,0.6,0,1.2,0,1.7c0,0.6,0,1.2,0,1.7H119V46h0.8V49.5z"/>
	<path class="st1" d="M123.1,47.1v5.9h-0.7V46h1l3.4,5.9V46h0.7v6.9h-1L123.1,47.1z"/>
	<path class="st1" d="M134.1,46.8h-3.3V49h2.8v0.8h-2.8v2.3h3.3v0.8H130V46h4.1V46.8z"/>
</g>
</svg>
